<?xml version="1.0" encoding="UTF-8" standalone="no"?>
<svg
   xmlns:dc="http://purl.org/dc/elements/1.1/"
   xmlns:cc="http://creativecommons.org/ns#"
   xmlns:rdf="http://www.w3.org/1999/02/22-rdf-syntax-ns#"
   xmlns:svg="http://www.w3.org/2000/svg"
   xmlns="http://www.w3.org/2000/svg"
   viewBox="0 0 1092.12 1090.92"
   height="1090.92"
   width="1092.12"
   xml:space="preserve"
   id="svg2"
   version="1.1"><metadata
     id="metadata8"><rdf:RDF><cc:Work
         rdf:about=""><dc:format>image/svg+xml</dc:format><dc:type
           rdf:resource="http://purl.org/dc/dcmitype/StillImage" /></cc:Work></rdf:RDF></metadata><defs
     id="defs6" /><g
     transform="matrix(1.3333333,0,0,-1.3333333,0,1090.92)"
     id="g10"><g
       transform="scale(0.1)"
       id="g12"><path
         id="path14"
         style="fill:#040606;fill-opacity:1;fill-rule:nonzero;stroke:none"
         d="M 8190.9,0 H 0 V 2386.24 H 8190.9 V 0" /><path
         id="path16"
         style="fill:#4ec5da;fill-opacity:1;fill-rule:nonzero;stroke:none"
         d="M 8190.9,3145.56 H 0 V 5531.79 H 8190.9 V 3145.56" /><path
         id="path18"
         style="fill:#245782;fill-opacity:1;fill-rule:nonzero;stroke:none"
         d="m 2864.18,7767.36 h 148.77 l -212.53,-530.33 h -133.59 l -212.54,530.33 h 151.81 l 128.54,-357.27 129.54,357.27" /><path
         id="path20"
         style="fill:#245782;fill-opacity:1;fill-rule:nonzero;stroke:none"
         d="m 3227.51,7453.61 c -58.7,-11.13 -81.98,-29.35 -81.98,-61.73 0,-33.41 19.23,-55.68 79.96,-55.68 84,0 128.53,48.59 128.53,121.46 v 19.22 z m -205.45,163.95 c 15.18,84.01 80.97,161.94 235.82,161.94 155.85,0 232.77,-73.88 232.77,-197.36 V 7376.7 c 0,-22.27 9.11,-34.42 28.34,-34.42 11.13,0 15.18,1.01 15.18,1.01 v -109.3 c 0,0 -11.14,-4.05 -37.44,-4.05 -49.59,0 -97.17,14.17 -120.44,65.79 -42.51,-45.55 -100.2,-70.85 -183.18,-70.85 -128.54,0 -186.23,69.83 -186.23,155.86 0,92.1 64.77,151.81 206.46,175.09 l 140.68,23.28 v 4.05 c 0,51.61 -31.37,77.92 -96.14,77.92 -63.76,0 -92.1,-26.31 -98.18,-68.81 l -137.64,25.29" /><path
         id="path22"
         style="fill:#245782;fill-opacity:1;fill-rule:nonzero;stroke:none"
         d="m 3604,7237.03 v 759.05 h 143.72 V 7237.03 H 3604" /><path
         id="path24"
         style="fill:#245782;fill-opacity:1;fill-rule:nonzero;stroke:none"
         d="m 4192,7767.36 h 143.71 v -530.33 h -132.58 v 64.77 c -24.29,-45.54 -76.92,-76.92 -155.86,-76.92 -127.52,0 -193.31,85.02 -193.31,211.53 v 330.95 h 143.72 V 7452.6 c 0,-61.74 24.28,-104.25 88.04,-104.25 70.85,0 106.28,43.53 106.28,117.4 v 301.61" /><path
         id="path26"
         style="fill:#245782;fill-opacity:1;fill-rule:nonzero;stroke:none"
         d="m 4558.36,7563.93 h 240.88 c -10.12,59.71 -53.64,100.19 -120.44,100.19 -65.79,0 -108.29,-39.47 -120.44,-100.19 z m 364.35,-184.2 c -38.46,-93.12 -119.43,-154.85 -241.89,-154.85 -156.86,0 -267.17,115.37 -267.17,278.32 0,156.87 109.3,276.3 266.16,276.3 156.87,0 263.15,-119.43 263.15,-276.3 0,-23.28 -2.03,-42.5 -2.03,-42.5 h -384.59 c 10.12,-72.87 56.67,-112.35 128.53,-112.35 47.58,0 86.03,19.23 105.26,61.74 l 132.58,-30.36" /><path
         id="path28"
         style="fill:#245782;fill-opacity:1;fill-rule:nonzero;stroke:none"
         d="m 5555.26,7767.36 h 143.72 v -530.33 h -132.59 v 64.77 c -24.29,-45.54 -76.91,-76.92 -155.86,-76.92 -127.53,0 -193.31,85.02 -193.31,211.53 v 330.95 h 143.72 V 7452.6 c 0,-61.74 24.29,-104.25 88.05,-104.25 70.84,0 106.27,43.53 106.27,117.4 v 301.61" /><path
         id="path30"
         style="fill:#245782;fill-opacity:1;fill-rule:nonzero;stroke:none"
         d="m 5942.88,7702.58 c 24.29,45.54 78.93,76.92 157.89,76.92 127.52,0 195.31,-85.02 195.31,-211.52 v -330.95 h -143.7 v 314.75 c 0,61.74 -26.32,104.25 -90.08,104.25 -69.83,0 -108.3,-44.54 -108.3,-115.39 v -303.61 h -143.71 v 530.33 h 132.59 v -64.78" /><path
         id="path32"
         style="fill:#245782;fill-opacity:1;fill-rule:nonzero;stroke:none"
         d="m 6402.63,7767.36 h 143.72 v -530.33 h -143.72 z m -15.17,154.84 c 0,50.61 36.44,87.04 87.03,87.04 50.61,0 87.05,-36.43 87.05,-87.04 0,-50.61 -36.44,-86.02 -87.05,-86.02 -50.59,0 -87.03,35.41 -87.03,86.02" /><path
         id="path34"
         style="fill:#245782;fill-opacity:1;fill-rule:nonzero;stroke:none"
         d="m 6916.9,7240.06 c 0,0 -24.29,-6.07 -67.81,-6.07 -116.39,0 -162.94,59.71 -162.94,161.94 V 7654 h -71.85 v 113.36 h 71.85 v 131.56 h 143.7 v -131.56 h 88.06 V 7654 h -88.06 v -242.9 c 0,-35.42 16.2,-51.62 53.66,-51.62 19.22,0 33.39,5.07 33.39,5.07 v -124.49" /><path
         id="path36"
         style="fill:#245782;fill-opacity:1;fill-rule:nonzero;stroke:none"
         d="m 7108.18,7412.11 c 3.03,-38.45 29.35,-71.86 89.06,-71.86 54.66,0 83,19.23 83,48.59 0,89.06 -292.5,5.06 -292.5,215.57 0,96.15 81.98,175.09 212.55,175.09 145.74,0 203.43,-85.02 215.57,-158.9 l -135.62,-25.31 c -3.04,38.47 -29.36,68.83 -80.98,68.83 -46.54,0 -72.86,-22.26 -72.86,-51.62 0,-89.05 291.49,0 291.49,-217.59 0,-95.14 -80.98,-170.03 -224.7,-170.03 -155.84,0 -215.57,75.91 -227.7,167 l 142.69,20.23" /><path
         id="path38"
         style="fill:#4ec5da;fill-opacity:1;fill-rule:nonzero;stroke:none"
         d="m 2116.08,7510.4 c 0,370.88 -300.65,671.54 -671.53,671.54 -370.88,0 -671.538,-300.66 -671.538,-671.54 0,-370.88 300.658,-671.53 671.538,-671.53 370.88,0 671.53,300.65 671.53,671.53" /><path
         id="path40"
         style="fill:#ffffff;fill-opacity:1;fill-rule:nonzero;stroke:none"
         d="m 1537.33,7539.65 h -186.15 l -27.84,87.74 h 241.98 z m -93.31,-292.58 -65,204.84 h 130.33 z m 451.12,468.06 h -131.59 l 56.6,157.45 c 3.15,8.77 -3.35,18.02 -12.67,18.02 h -148.37 c -5.86,0 -11.05,-3.79 -12.83,-9.37 l -52.98,-166.1 h -297.79 l -52.7,166.08 c -1.78,5.59 -6.97,9.39 -12.83,9.39 H 1083.5 c -9.32,0 -15.82,-9.25 -12.67,-18.02 l 56.62,-157.45 H 995.848 c -9.332,0 -15.832,-9.26 -12.668,-18.04 l 21.94,-60.81 c 1.93,-5.34 6.99,-8.89 12.67,-8.89 H 1159 v 0 l 31.55,-87.74 H 1058.4 c -9.34,0 -15.84,-9.27 -12.65,-18.06 l 22.05,-60.8 c 1.94,-5.33 6.99,-8.88 12.66,-8.88 h 141.64 l 133.51,-371.28 c 1.92,-5.35 6.99,-8.91 12.67,-8.91 h 154.54 c 5.68,0 10.75,3.56 12.67,8.91 l 133.46,371.28 h 141.72 c 5.68,0 10.74,3.56 12.67,8.9 l 21.91,60.81 c 3.16,8.78 -3.34,18.03 -12.67,18.03 h -132.1 l 31.54,87.74 v 0 h 141.11 c 5.67,0 10.73,3.55 12.66,8.88 l 22.01,60.81 c 3.17,8.78 -3.33,18.05 -12.66,18.05" /><path
         id="path42"
         style="fill:#245782;fill-opacity:1;fill-rule:nonzero;stroke:none"
         d="m 2864.18,4595.62 h 148.77 L 2800.42,4065.3 h -133.59 l -212.54,530.32 h 151.81 l 128.54,-357.26 129.54,357.26" /><path
         id="path44"
         style="fill:#245782;fill-opacity:1;fill-rule:nonzero;stroke:none"
         d="m 3227.51,4281.88 c -58.7,-11.13 -81.98,-29.35 -81.98,-61.73 0,-33.41 19.23,-55.68 79.96,-55.68 84,0 128.53,48.59 128.53,121.46 v 19.22 z m -205.45,163.95 c 15.18,84.01 80.97,161.94 235.82,161.94 155.85,0 232.77,-73.88 232.77,-197.35 v -205.46 c 0,-22.26 9.11,-34.41 28.34,-34.41 11.13,0 15.18,1.01 15.18,1.01 v -109.3 c 0,0 -11.14,-4.05 -37.44,-4.05 -49.59,0 -97.17,14.17 -120.44,65.79 -42.51,-45.54 -100.2,-70.85 -183.18,-70.85 -128.54,0 -186.23,69.83 -186.23,155.86 0,92.1 64.77,151.81 206.46,175.09 l 140.68,23.28 v 4.05 c 0,51.61 -31.37,77.92 -96.14,77.92 -63.76,0 -92.1,-26.31 -98.18,-68.81 l -137.64,25.29" /><path
         id="path46"
         style="fill:#245782;fill-opacity:1;fill-rule:nonzero;stroke:none"
         d="m 3604,4065.3 v 759.05 h 143.72 V 4065.3 H 3604" /><path
         id="path48"
         style="fill:#245782;fill-opacity:1;fill-rule:nonzero;stroke:none"
         d="m 4192,4595.62 h 143.71 V 4065.3 h -132.58 v 64.77 c -24.29,-45.54 -76.92,-76.92 -155.86,-76.92 -127.52,0 -193.31,85.02 -193.31,211.53 v 330.94 h 143.72 v -314.75 c 0,-61.73 24.28,-104.25 88.04,-104.25 70.85,0 106.28,43.53 106.28,117.4 v 301.6" /><path
         id="path50"
         style="fill:#245782;fill-opacity:1;fill-rule:nonzero;stroke:none"
         d="m 4558.36,4392.2 h 240.88 c -10.12,59.71 -53.64,100.19 -120.44,100.19 -65.79,0 -108.29,-39.47 -120.44,-100.19 z M 4922.71,4208 c -38.46,-93.11 -119.43,-154.85 -241.89,-154.85 -156.86,0 -267.17,115.37 -267.17,278.32 0,156.87 109.3,276.3 266.16,276.3 156.87,0 263.15,-119.43 263.15,-276.3 0,-23.28 -2.03,-42.5 -2.03,-42.5 h -384.59 c 10.12,-72.87 56.67,-112.35 128.53,-112.35 47.58,0 86.03,19.23 105.26,61.74 L 4922.71,4208" /><path
         id="path52"
         style="fill:#245782;fill-opacity:1;fill-rule:nonzero;stroke:none"
         d="m 5555.26,4595.62 h 143.72 V 4065.3 h -132.59 v 64.77 c -24.29,-45.54 -76.91,-76.92 -155.86,-76.92 -127.53,0 -193.31,85.02 -193.31,211.53 v 330.94 h 143.72 v -314.75 c 0,-61.73 24.29,-104.25 88.05,-104.25 70.84,0 106.27,43.53 106.27,117.4 v 301.6" /><path
         id="path54"
         style="fill:#245782;fill-opacity:1;fill-rule:nonzero;stroke:none"
         d="m 5942.88,4530.85 c 24.29,45.54 78.93,76.92 157.89,76.92 127.52,0 195.31,-85.02 195.31,-211.52 V 4065.3 h -143.7 v 314.75 c 0,61.74 -26.32,104.25 -90.08,104.25 -69.83,0 -108.3,-44.54 -108.3,-115.38 V 4065.3 h -143.71 v 530.32 h 132.59 v -64.77" /><path
         id="path56"
         style="fill:#245782;fill-opacity:1;fill-rule:nonzero;stroke:none"
         d="m 6402.63,4595.62 h 143.72 V 4065.3 h -143.72 z m -15.17,154.85 c 0,50.61 36.44,87.04 87.03,87.04 50.61,0 87.05,-36.43 87.05,-87.04 0,-50.61 -36.44,-86.02 -87.05,-86.02 -50.59,0 -87.03,35.41 -87.03,86.02" /><path
         id="path58"
         style="fill:#245782;fill-opacity:1;fill-rule:nonzero;stroke:none"
         d="m 6916.9,4068.33 c 0,0 -24.29,-6.07 -67.81,-6.07 -116.39,0 -162.94,59.71 -162.94,161.94 v 258.07 h -71.85 v 113.35 h 71.85 v 131.57 h 143.7 v -131.57 h 88.06 v -113.35 h -88.06 v -242.9 c 0,-35.42 16.2,-51.61 53.66,-51.61 19.22,0 33.39,5.06 33.39,5.06 v -124.49" /><path
         id="path60"
         style="fill:#245782;fill-opacity:1;fill-rule:nonzero;stroke:none"
         d="m 7108.18,4240.38 c 3.03,-38.45 29.35,-71.86 89.06,-71.86 54.66,0 83,19.24 83,48.59 0,89.06 -292.5,5.06 -292.5,215.57 0,96.15 81.98,175.09 212.55,175.09 145.74,0 203.43,-85.02 215.57,-158.9 l -135.62,-25.3 c -3.04,38.46 -29.36,68.82 -80.98,68.82 -46.54,0 -72.86,-22.26 -72.86,-51.62 0,-89.05 291.49,0 291.49,-217.59 0,-95.14 -80.98,-170.03 -224.7,-170.03 -155.84,0 -215.57,75.91 -227.7,167 l 142.69,20.23" /><path
         id="path62"
         style="fill:#ffffff;fill-opacity:1;fill-rule:nonzero;stroke:none"
         d="m 2116.08,4338.67 c 0,370.88 -300.65,671.54 -671.53,671.54 -370.88,0 -671.538,-300.66 -671.538,-671.54 0,-370.88 300.658,-671.53 671.538,-671.53 370.88,0 671.53,300.65 671.53,671.53" /><path
         id="path64"
         style="fill:#4bc3d8;fill-opacity:1;fill-rule:nonzero;stroke:none"
         d="m 1537.33,4367.92 h -186.15 l -27.84,87.74 h 241.98 z m -93.31,-292.58 -65,204.84 h 130.33 z m 451.12,468.05 h -131.59 l 56.6,157.46 c 3.15,8.77 -3.35,18.02 -12.67,18.02 h -148.37 c -5.86,0 -11.05,-3.79 -12.83,-9.37 l -52.98,-166.11 h -297.79 l -52.7,166.09 c -1.78,5.59 -6.97,9.39 -12.83,9.39 H 1083.5 c -9.32,0 -15.82,-9.25 -12.67,-18.02 l 56.62,-157.46 H 995.848 c -9.332,0 -15.832,-9.25 -12.668,-18.03 l 21.94,-60.81 c 1.93,-5.34 6.99,-8.89 12.67,-8.89 H 1159 v 0 l 31.55,-87.74 H 1058.4 c -9.34,0 -15.84,-9.28 -12.65,-18.06 l 22.05,-60.81 c 1.94,-5.32 6.99,-8.87 12.66,-8.87 h 141.64 l 133.51,-371.29 c 1.92,-5.34 6.99,-8.9 12.67,-8.9 h 154.54 c 5.68,0 10.75,3.56 12.67,8.91 l 133.46,371.28 h 141.72 c 5.68,0 10.74,3.56 12.67,8.9 l 21.91,60.81 c 3.16,8.78 -3.34,18.03 -12.67,18.03 h -132.1 l 31.54,87.74 v 0 h 141.11 c 5.67,0 10.73,3.55 12.66,8.88 l 22.01,60.81 c 3.17,8.78 -3.33,18.04 -12.66,18.04" /><path
         id="path66"
         style="fill:#ffffff;fill-opacity:1;fill-rule:nonzero;stroke:none"
         d="m 2864.18,1450.07 h 148.77 L 2800.42,919.738 h -133.59 l -212.54,530.332 h 151.81 l 128.54,-357.27 129.54,357.27" /><path
         id="path68"
         style="fill:#ffffff;fill-opacity:1;fill-rule:nonzero;stroke:none"
         d="m 3227.51,1136.33 c -58.7,-11.13 -81.98,-29.35 -81.98,-61.73 0,-33.41 19.23,-55.68 79.96,-55.68 84,0 128.53,48.59 128.53,121.46 v 19.22 z m -205.45,163.95 c 15.18,84.01 80.97,161.94 235.82,161.94 155.85,0 232.77,-73.88 232.77,-197.36 v -205.45 c 0,-22.27 9.11,-34.41 28.34,-34.41 11.13,0 15.18,1.01 15.18,1.01 V 916.711 c 0,0 -11.14,-4.051 -37.44,-4.051 -49.59,0 -97.17,14.168 -120.44,65.781 -42.51,-45.543 -100.2,-70.843 -183.18,-70.843 -128.54,0 -186.23,69.832 -186.23,155.862 0,92.09 64.77,151.8 206.46,175.09 l 140.68,23.28 v 4.05 c 0,51.61 -31.37,77.92 -96.14,77.92 -63.76,0 -92.1,-26.31 -98.18,-68.81 l -137.64,25.29" /><path
         id="path70"
         style="fill:#ffffff;fill-opacity:1;fill-rule:nonzero;stroke:none"
         d="M 3604,919.738 V 1678.8 h 143.72 V 919.738 H 3604" /><path
         id="path72"
         style="fill:#ffffff;fill-opacity:1;fill-rule:nonzero;stroke:none"
         d="m 4192,1450.07 h 143.71 V 919.738 h -132.58 v 64.782 c -24.29,-45.54 -76.92,-76.922 -155.86,-76.922 -127.52,0 -193.31,85.011 -193.31,211.522 v 330.95 h 143.72 v -314.75 c 0,-61.74 24.28,-104.25 88.04,-104.25 70.85,0 106.28,43.53 106.28,117.4 v 301.6" /><path
         id="path74"
         style="fill:#ffffff;fill-opacity:1;fill-rule:nonzero;stroke:none"
         d="m 4558.36,1246.64 h 240.88 c -10.12,59.72 -53.64,100.19 -120.44,100.19 -65.79,0 -108.29,-39.46 -120.44,-100.19 z m 364.35,-184.19 c -38.46,-93.122 -119.43,-154.852 -241.89,-154.852 -156.86,0 -267.17,115.372 -267.17,278.322 0,156.87 109.3,276.3 266.16,276.3 156.87,0 263.15,-119.43 263.15,-276.3 0,-23.28 -2.03,-42.5 -2.03,-42.5 h -384.59 c 10.12,-72.87 56.67,-112.35 128.53,-112.35 47.58,0 86.03,19.23 105.26,61.73 l 132.58,-30.35" /><path
         id="path76"
         style="fill:#ffffff;fill-opacity:1;fill-rule:nonzero;stroke:none"
         d="m 5555.26,1450.07 h 143.72 V 919.738 h -132.59 v 64.782 c -24.29,-45.54 -76.91,-76.922 -155.86,-76.922 -127.53,0 -193.31,85.011 -193.31,211.522 v 330.95 h 143.72 v -314.75 c 0,-61.74 24.29,-104.25 88.05,-104.25 70.84,0 106.27,43.53 106.27,117.4 v 301.6" /><path
         id="path78"
         style="fill:#ffffff;fill-opacity:1;fill-rule:nonzero;stroke:none"
         d="m 5942.88,1385.3 c 24.29,45.54 78.93,76.92 157.89,76.92 127.52,0 195.31,-85.02 195.31,-211.53 V 919.738 h -143.7 V 1234.5 c 0,61.73 -26.32,104.25 -90.08,104.25 -69.83,0 -108.3,-44.54 -108.3,-115.39 V 919.738 h -143.71 v 530.332 h 132.59 v -64.77" /><path
         id="path80"
         style="fill:#ffffff;fill-opacity:1;fill-rule:nonzero;stroke:none"
         d="m 6402.63,1450.07 h 143.72 V 919.738 h -143.72 z m -15.17,154.84 c 0,50.61 36.44,87.04 87.03,87.04 50.61,0 87.05,-36.43 87.05,-87.04 0,-50.6 -36.44,-86.02 -87.05,-86.02 -50.59,0 -87.03,35.42 -87.03,86.02" /><path
         id="path82"
         style="fill:#ffffff;fill-opacity:1;fill-rule:nonzero;stroke:none"
         d="m 6916.9,922.781 c 0,0 -24.29,-6.07 -67.81,-6.07 -116.39,0 -162.94,59.707 -162.94,161.929 v 258.08 h -71.85 v 113.35 h 71.85 v 131.57 h 143.7 v -131.57 h 88.06 v -113.35 h -88.06 v -242.9 c 0,-35.42 16.2,-51.62 53.66,-51.62 19.22,0 33.39,5.06 33.39,5.06 V 922.781" /><path
         id="path84"
         style="fill:#ffffff;fill-opacity:1;fill-rule:nonzero;stroke:none"
         d="m 7108.18,1094.83 c 3.03,-38.46 29.35,-71.86 89.06,-71.86 54.66,0 83,19.23 83,48.59 0,89.05 -292.5,5.06 -292.5,215.56 0,96.15 81.98,175.1 212.55,175.1 145.74,0 203.43,-85.02 215.57,-158.9 l -135.62,-25.31 c -3.04,38.47 -29.36,68.82 -80.98,68.82 -46.54,0 -72.86,-22.25 -72.86,-51.61 0,-89.06 291.49,0 291.49,-217.59 0,-95.142 -80.98,-170.032 -224.7,-170.032 -155.84,0 -215.57,75.902 -227.7,167.002 l 142.69,20.23" /><path
         id="path86"
         style="fill:#ffffff;fill-opacity:1;fill-rule:nonzero;stroke:none"
         d="m 1351.18,1222.37 h 186.15 l 27.99,87.73 h -241.98 l 27.84,-87.73" /><path
         id="path88"
         style="fill:#ffffff;fill-opacity:1;fill-rule:nonzero;stroke:none"
         d="m 1444.02,929.789 65.33,204.841 h -130.33 z" /><path
         id="path90"
         style="fill:#ffffff;fill-opacity:1;fill-rule:nonzero;stroke:none"
         d="m 1907.8,1379.8 -22.01,-60.81 c -1.93,-5.33 -6.99,-8.89 -12.66,-8.89 h -141.11 l -31.54,-87.73 h 132.1 c 9.33,0 15.83,-9.26 12.67,-18.03 l -21.91,-60.81 c -1.93,-5.34 -6.99,-8.9 -12.67,-8.9 H 1668.95 L 1535.49,763.34 c -1.92,-5.34 -6.99,-8.91 -12.67,-8.91 h -154.54 c -5.68,0 -10.75,3.57 -12.67,8.91 l -133.51,371.29 h -141.64 c -5.67,0 -10.72,3.55 -12.66,8.87 l -22.05,60.81 c -3.19,8.78 3.31,18.06 12.65,18.06 h 132.15 L 1159,1310.1 h -141.21 c -5.68,0 -10.74,3.56 -12.67,8.9 l -21.94,60.81 c -3.164,8.77 3.336,18.03 12.668,18.03 h 131.602 l -56.62,157.46 c -3.15,8.77 3.35,18.02 12.67,18.02 h 146.48 c 5.86,0 11.05,-3.8 12.83,-9.4 l 52.7,-166.08 h 297.79 l 52.98,166.1 c 1.78,5.59 6.97,9.38 12.83,9.38 h 148.37 c 9.32,0 15.82,-9.25 12.67,-18.02 l -56.6,-157.46 h 131.59 c 9.33,0 15.83,-9.27 12.66,-18.04 z m -463.25,484.86 c -370.88,0 -671.538,-300.66 -671.538,-671.54 0,-370.882 300.658,-671.53 671.538,-671.53 370.88,0 671.54,300.648 671.54,671.53 0,370.88 -300.66,671.54 -671.54,671.54" /></g></g></svg>